<svg xmlns="http://www.w3.org/2000/svg" xmlns:xlink="http://www.w3.org/1999/xlink" width="2000" zoomAndPan="magnify" viewBox="0 0 1500 599.999999" height="800" preserveAspectRatio="xMidYMid meet" version="1.0"><defs><g/><clipPath id="1bbbe8c12f"><path d="M 704.886719 157 L 729 157 L 729 177 L 704.886719 177 Z M 704.886719 157 " clip-rule="nonzero"/></clipPath><clipPath id="2b1f839d28"><path d="M 857 8.53125 L 1131 8.53125 L 1131 150 L 857 150 Z M 857 8.53125 " clip-rule="nonzero"/></clipPath><clipPath id="1bb2768297"><rect x="0" width="1294" y="0" height="395"/></clipPath><clipPath id="e151e20fef"><rect x="0" width="1358" y="0" height="194"/></clipPath></defs><path fill="#1d1d1b" d="M 816.878906 130.503906 C 800.058594 136.179688 774.578125 144.554688 747.277344 151.878906 C 745.179688 152.429688 743.964844 154.578125 744.519531 156.671875 C 744.960938 158.4375 746.558594 159.539062 748.269531 159.539062 C 748.601562 159.539062 748.929688 159.484375 749.261719 159.429688 C 776.785156 152.046875 802.429688 143.617188 819.308594 137.941406 C 821.347656 137.28125 822.449219 135.023438 821.734375 132.984375 C 821.128906 130.890625 818.921875 129.789062 816.878906 130.503906 Z M 816.878906 130.503906 " fill-opacity="1" fill-rule="nonzero"/><g clip-path="url(#1bbbe8c12f)"><path fill="#1d1d1b" d="M 723.78125 157.71875 C 703.042969 162.570312 683.019531 166.148438 664.324219 168.464844 C 662.171875 168.738281 660.683594 170.667969 660.960938 172.816406 C 661.179688 174.800781 662.890625 176.230469 664.820312 176.230469 C 664.984375 176.230469 665.152344 176.230469 665.316406 176.175781 C 684.34375 173.863281 704.585938 170.171875 725.601562 165.269531 C 727.695312 164.773438 729.019531 162.679688 728.523438 160.585938 C 727.972656 158.546875 725.875 157.222656 723.78125 157.71875 Z M 723.78125 157.71875 " fill-opacity="1" fill-rule="nonzero"/></g><path fill="#1d1d1b" d="M 850.136719 119.046875 L 835.414062 124.167969 C 833.371094 124.886719 832.324219 127.089844 832.984375 129.128906 C 833.535156 130.726562 835.027344 131.773438 836.679688 131.773438 C 837.121094 131.773438 837.507812 131.714844 837.949219 131.550781 L 852.675781 126.429688 C 854.714844 125.710938 855.765625 123.507812 855.101562 121.46875 C 854.386719 119.429688 852.179688 118.328125 850.136719 119.046875 Z M 850.136719 119.046875 " fill-opacity="1" fill-rule="nonzero"/><g clip-path="url(#2b1f839d28)"><path fill="#1d1d1b" d="M 1128.390625 37.34375 C 1124.253906 32.882812 1116.589844 25.71875 1107.875 23.351562 C 1091.824219 18.996094 1045.382812 32.273438 1032.917969 36.351562 C 1030.933594 37.011719 1028.726562 36.957031 1026.796875 36.1875 L 958.128906 9.464844 C 956.199219 8.695312 954.105469 8.640625 952.117188 9.246094 L 927.023438 17.015625 C 923.988281 17.949219 923.21875 21.863281 925.589844 23.902344 L 970.097656 62.023438 C 970.761719 62.574219 970.59375 63.621094 969.824219 63.953125 L 905.347656 91.003906 C 902.3125 92.269531 898.839844 91.828125 896.246094 89.847656 L 877.992188 75.6875 C 875.453125 73.757812 872.089844 73.261719 869.113281 74.421875 L 858.796875 78.550781 C 856.921875 79.269531 856.425781 81.746094 857.859375 83.125 L 870.546875 98.714844 C 872.199219 100.3125 873.136719 102.519531 873.25 104.832031 L 873.800781 118 C 873.800781 118.605469 874.074219 119.210938 874.515625 119.652344 L 884.390625 130.117188 C 885.714844 131.496094 887.753906 131.9375 889.519531 131.222656 L 896.246094 128.578125 C 898.011719 127.859375 899.445312 126.59375 900.496094 125.050781 L 901.15625 124.003906 C 902.257812 122.242188 903.96875 120.917969 905.953125 120.257812 L 979.585938 95.796875 C 980.523438 95.464844 981.460938 96.347656 981.238281 97.339844 L 969.769531 142.238281 C 968.609375 146.867188 973.078125 150.945312 977.601562 149.292969 L 1001.867188 140.367188 C 1003.46875 139.761719 1004.847656 138.769531 1005.894531 137.390625 L 1048.804688 82.078125 C 1049.851562 80.699219 1051.230469 79.710938 1052.886719 79.101562 C 1061.820312 75.90625 1092.375 62.300781 1113.941406 54.367188 C 1120.503906 51.996094 1124.695312 49.792969 1127.34375 47.921875 C 1130.820312 45.550781 1131.316406 40.539062 1128.390625 37.34375 Z M 1128.390625 37.34375 " fill-opacity="1" fill-rule="nonzero"/></g><g transform="matrix(1, 0, 0, 1, 102, 112)"><g clip-path="url(#1bb2768297)"><g fill="#004aad" fill-opacity="1"><g transform="translate(2.365707, 309.53445)"><g><path d="M 91.640625 2.96875 C 77.304688 2.96875 64.550781 1.203125 53.375 -2.328125 C 42.207031 -5.867188 32.898438 -10.515625 25.453125 -16.265625 C 18.003906 -22.015625 12.300781 -28.332031 8.34375 -35.21875 L 30.828125 -62.640625 L 34.359375 -62.640625 C 40.585938 -53.410156 48.484375 -46.0625 58.046875 -40.59375 C 67.617188 -35.125 78.816406 -32.390625 91.640625 -32.390625 C 102.578125 -32.390625 110.828125 -34.695312 116.390625 -39.3125 C 121.953125 -43.9375 124.734375 -50.300781 124.734375 -58.40625 C 124.734375 -63.3125 123.835938 -67.410156 122.046875 -70.703125 C 120.253906 -74.003906 117.28125 -76.832031 113.125 -79.1875 C 108.976562 -81.550781 103.375 -83.582031 96.3125 -85.28125 L 69.71875 -91.359375 C 51.144531 -95.597656 37.304688 -102.644531 28.203125 -112.5 C 19.109375 -122.351562 14.5625 -135.148438 14.5625 -150.890625 C 14.5625 -162.578125 17.484375 -172.851562 23.328125 -181.71875 C 29.179688 -190.582031 37.691406 -197.460938 48.859375 -202.359375 C 60.035156 -207.265625 73.398438 -209.71875 88.953125 -209.71875 C 104.890625 -209.71875 118.535156 -207.617188 129.890625 -203.421875 C 141.253906 -199.234375 150.847656 -192.800781 158.671875 -184.125 L 138.453125 -156.40625 L 134.90625 -156.40625 C 129.0625 -162.53125 122.367188 -167.125 114.828125 -170.1875 C 107.285156 -173.257812 98.660156 -174.796875 88.953125 -174.796875 C 77.734375 -174.796875 69.203125 -172.816406 63.359375 -168.859375 C 57.515625 -164.898438 54.59375 -159.429688 54.59375 -152.453125 C 54.59375 -145.941406 56.640625 -140.753906 60.734375 -136.890625 C 64.835938 -133.023438 71.929688 -130.007812 82.015625 -127.84375 L 109.171875 -122.1875 C 129.253906 -117.945312 143.820312 -110.757812 152.875 -100.625 C 161.925781 -90.488281 166.453125 -77.265625 166.453125 -60.953125 C 166.453125 -48.035156 163.671875 -36.789062 158.109375 -27.21875 C 152.546875 -17.65625 144.15625 -10.234375 132.9375 -4.953125 C 121.71875 0.328125 107.953125 2.96875 91.640625 2.96875 Z M 91.640625 2.96875 "/></g></g></g><g fill="#004aad" fill-opacity="1"><g transform="translate(177.574155, 309.53445)"><g><path d="M 165.75 -206.75 L 165.75 -172.390625 L 106.0625 -172.390625 L 106.0625 0 L 65.328125 0 L 65.328125 -172.390625 L 5.65625 -172.390625 L 5.65625 -206.75 Z M 165.75 -206.75 "/></g></g></g><g fill="#004aad" fill-opacity="1"><g transform="translate(348.964664, 309.53445)"><g><path d="M 26.875 0 L 26.875 -206.75 L 109.875 -206.75 C 131.28125 -206.75 147.425781 -201.820312 158.3125 -191.96875 C 169.207031 -182.125 174.65625 -168.523438 174.65625 -151.171875 C 174.65625 -138.640625 171.472656 -128.363281 165.109375 -120.34375 C 158.742188 -112.332031 149.242188 -106.207031 136.609375 -101.96875 L 136.609375 -99 C 143.117188 -96.164062 148.375 -91.96875 152.375 -86.40625 C 156.382812 -80.84375 160.179688 -72.59375 163.765625 -61.65625 L 184.40625 0 L 142.40625 0 L 122.1875 -61.796875 C 120.113281 -68.023438 117.78125 -72.859375 115.1875 -76.296875 C 112.59375 -79.734375 109.289062 -82.226562 105.28125 -83.78125 C 101.28125 -85.34375 96.070312 -86.125 89.65625 -86.125 L 67.734375 -86.125 L 67.734375 0 Z M 104.9375 -118.515625 C 124.726562 -118.515625 134.625 -127.753906 134.625 -146.234375 C 134.625 -164.992188 124.726562 -174.375 104.9375 -174.375 L 67.734375 -174.375 L 67.734375 -118.515625 Z M 104.9375 -118.515625 "/></g></g></g><g fill="#004aad" fill-opacity="1"><g transform="translate(542.273936, 309.53445)"><g><path d="M 198.40625 0 L 155.421875 0 L 139.859375 -47.65625 L 60.671875 -47.65625 L 45.109375 0 L 3.109375 0 L 74.53125 -206.75 L 127 -206.75 Z M 98.28125 -163.625 L 71.703125 -82.015625 L 128.546875 -82.015625 L 101.828125 -163.625 Z M 98.28125 -163.625 "/></g></g></g><g fill="#004aad" fill-opacity="1"><g transform="translate(725.400382, 309.53445)"><g><path d="M 165.75 -206.75 L 165.75 -172.390625 L 106.0625 -172.390625 L 106.0625 0 L 65.328125 0 L 65.328125 -172.390625 L 5.65625 -172.390625 L 5.65625 -206.75 Z M 165.75 -206.75 "/></g></g></g><g fill="#004aad" fill-opacity="1"><g transform="translate(896.790845, 309.53445)"><g><path d="M 109.59375 2.96875 C 81.125 2.96875 60.003906 -3.796875 46.234375 -17.328125 C 32.472656 -30.859375 25.59375 -50.914062 25.59375 -77.5 L 25.59375 -206.75 L 65.625 -206.75 L 65.625 -77.78125 C 65.625 -62.695312 69.25 -51.382812 76.5 -43.84375 C 83.757812 -36.300781 94.789062 -32.53125 109.59375 -32.53125 C 138.914062 -32.53125 153.578125 -47.613281 153.578125 -77.78125 L 153.578125 -206.75 L 193.609375 -206.75 L 193.609375 -77.5 C 193.609375 -50.914062 186.722656 -30.859375 172.953125 -17.328125 C 159.191406 -3.796875 138.070312 2.96875 109.59375 2.96875 Z M 109.59375 2.96875 "/></g></g></g><g fill="#004aad" fill-opacity="1"><g transform="translate(1115.978442, 309.53445)"><g><path d="M 91.640625 2.96875 C 77.304688 2.96875 64.550781 1.203125 53.375 -2.328125 C 42.207031 -5.867188 32.898438 -10.515625 25.453125 -16.265625 C 18.003906 -22.015625 12.300781 -28.332031 8.34375 -35.21875 L 30.828125 -62.640625 L 34.359375 -62.640625 C 40.585938 -53.410156 48.484375 -46.0625 58.046875 -40.59375 C 67.617188 -35.125 78.816406 -32.390625 91.640625 -32.390625 C 102.578125 -32.390625 110.828125 -34.695312 116.390625 -39.3125 C 121.953125 -43.9375 124.734375 -50.300781 124.734375 -58.40625 C 124.734375 -63.3125 123.835938 -67.410156 122.046875 -70.703125 C 120.253906 -74.003906 117.28125 -76.832031 113.125 -79.1875 C 108.976562 -81.550781 103.375 -83.582031 96.3125 -85.28125 L 69.71875 -91.359375 C 51.144531 -95.597656 37.304688 -102.644531 28.203125 -112.5 C 19.109375 -122.351562 14.5625 -135.148438 14.5625 -150.890625 C 14.5625 -162.578125 17.484375 -172.851562 23.328125 -181.71875 C 29.179688 -190.582031 37.691406 -197.460938 48.859375 -202.359375 C 60.035156 -207.265625 73.398438 -209.71875 88.953125 -209.71875 C 104.890625 -209.71875 118.535156 -207.617188 129.890625 -203.421875 C 141.253906 -199.234375 150.847656 -192.800781 158.671875 -184.125 L 138.453125 -156.40625 L 134.90625 -156.40625 C 129.0625 -162.53125 122.367188 -167.125 114.828125 -170.1875 C 107.285156 -173.257812 98.660156 -174.796875 88.953125 -174.796875 C 77.734375 -174.796875 69.203125 -172.816406 63.359375 -168.859375 C 57.515625 -164.898438 54.59375 -159.429688 54.59375 -152.453125 C 54.59375 -145.941406 56.640625 -140.753906 60.734375 -136.890625 C 64.835938 -133.023438 71.929688 -130.007812 82.015625 -127.84375 L 109.171875 -122.1875 C 129.253906 -117.945312 143.820312 -110.757812 152.875 -100.625 C 161.925781 -90.488281 166.453125 -77.265625 166.453125 -60.953125 C 166.453125 -48.035156 163.671875 -36.789062 158.109375 -27.21875 C 152.546875 -17.65625 144.15625 -10.234375 132.9375 -4.953125 C 121.71875 0.328125 107.953125 2.96875 91.640625 2.96875 Z M 91.640625 2.96875 "/></g></g></g></g></g><g transform="matrix(1, 0, 0, 1, 99, 406)"><g clip-path="url(#e151e20fef)"><g fill="#000000" fill-opacity="1"><g transform="translate(1.691366, 154.510782)"><g><path d="M 26.796875 0 L 15.578125 0 L 15.578125 -103.09375 L 33.5625 -103.09375 L 64.8125 -15.796875 L 66.28125 -15.796875 L 97.53125 -103.09375 L 114.875 -103.09375 L 114.875 0 L 103.375 0 L 103.375 -84.125 L 101.609375 -84.40625 L 71.15625 0 L 59.09375 0 L 28.5625 -84.40625 L 26.796875 -84.125 Z M 26.796875 0 "/></g></g></g><g fill="#000000" fill-opacity="1"><g transform="translate(188.838614, 154.510782)"><g><path d="M 92.796875 0 L 79.828125 0 L 70.3125 -28.28125 L 26.375 -28.28125 L 16.78125 0 L 4.09375 0 L 40.046875 -103.09375 L 56.84375 -103.09375 Z M 47.453125 -90.609375 L 29.765625 -38.4375 L 66.84375 -38.4375 L 49.21875 -90.609375 Z M 47.453125 -90.609375 "/></g></g></g><g fill="#000000" fill-opacity="1"><g transform="translate(342.348354, 154.510782)"><g><path d="M 15.578125 0 L 15.578125 -103.09375 L 53.03125 -103.09375 C 59.9375 -103.09375 65.738281 -101.953125 70.4375 -99.671875 C 75.144531 -97.390625 78.671875 -94.171875 81.015625 -90.015625 C 83.367188 -85.859375 84.546875 -80.9375 84.546875 -75.25 C 84.546875 -68.851562 82.945312 -63.570312 79.75 -59.40625 C 76.5625 -55.25 71.582031 -52.132812 64.8125 -50.0625 L 64.8125 -48.59375 C 68.144531 -47.269531 70.867188 -45.195312 72.984375 -42.375 C 75.097656 -39.5625 77.050781 -35.359375 78.84375 -29.765625 L 88.359375 0 L 75.875 0 L 65.578125 -31.515625 C 64.359375 -35.234375 62.945312 -38.148438 61.34375 -40.265625 C 59.75 -42.378906 57.726562 -43.90625 55.28125 -44.84375 C 52.84375 -45.789062 49.742188 -46.265625 45.984375 -46.265625 L 27.71875 -46.265625 L 27.71875 0 Z M 52.75 -56.5625 C 59.1875 -56.5625 63.976562 -58.050781 67.125 -61.03125 C 70.28125 -64.019531 71.859375 -68.566406 71.859375 -74.671875 C 71.859375 -80.785156 70.28125 -85.332031 67.125 -88.3125 C 63.976562 -91.300781 59.1875 -92.796875 52.75 -92.796875 L 27.71875 -92.796875 L 27.71875 -56.5625 Z M 52.75 -56.5625 "/></g></g></g><g fill="#000000" fill-opacity="1"><g transform="translate(494.447718, 154.510782)"><g><path d="M 15.578125 0 L 15.578125 -103.09375 L 27.71875 -103.09375 L 27.71875 -58.03125 L 29.90625 -58.03125 L 72.21875 -103.09375 L 85.46875 -103.09375 L 85.46875 -101.328125 L 40.828125 -53.171875 L 89 -1.765625 L 89 0 L 75.109375 0 L 29.90625 -47.453125 L 27.71875 -47.453125 L 27.71875 0 Z M 15.578125 0 "/></g></g></g><g fill="#000000" fill-opacity="1"><g transform="translate(642.033874, 154.510782)"><g><path d="M 27.71875 -48.59375 L 27.71875 -10.015625 L 80.25 -10.015625 L 80.25 0 L 15.578125 0 L 15.578125 -103.09375 L 79.125 -103.09375 L 79.125 -93.078125 L 27.71875 -93.078125 L 27.71875 -58.59375 L 73.0625 -58.59375 L 73.0625 -48.59375 Z M 27.71875 -48.59375 "/></g></g></g><g fill="#000000" fill-opacity="1"><g transform="translate(785.741503, 154.510782)"><g><path d="M 80.46875 -103.09375 L 80.46875 -92.796875 L 48.171875 -92.796875 L 48.171875 0 L 36.109375 0 L 36.109375 -92.796875 L 3.8125 -92.796875 L 3.8125 -103.09375 Z M 80.46875 -103.09375 "/></g></g></g><g fill="#000000" fill-opacity="1"><g transform="translate(926.557893, 154.510782)"><g><path d="M 27.71875 0 L 15.578125 0 L 15.578125 -103.09375 L 27.71875 -103.09375 Z M 27.71875 0 "/></g></g></g><g fill="#000000" fill-opacity="1"><g transform="translate(1026.54374, 154.510782)"><g><path d="M 27.4375 0 L 15.578125 0 L 15.578125 -103.09375 L 30.46875 -103.09375 L 80.75 -24.328125 L 82.5 -24.609375 L 82.5 -103.09375 L 94.28125 -103.09375 L 94.28125 0 L 81.59375 0 L 29.1875 -84.265625 L 27.4375 -83.984375 Z M 27.4375 0 "/></g></g></g><g fill="#000000" fill-opacity="1"><g transform="translate(1193.09957, 154.510782)"><g><path d="M 54.234375 1.484375 C 45.578125 1.484375 37.945312 -0.488281 31.34375 -4.4375 C 24.738281 -8.382812 19.578125 -14.332031 15.859375 -22.28125 C 12.148438 -30.226562 10.296875 -39.984375 10.296875 -51.546875 C 10.296875 -63.109375 12.28125 -72.863281 16.25 -80.8125 C 20.226562 -88.757812 25.742188 -94.707031 32.796875 -98.65625 C 39.847656 -102.601562 47.976562 -104.578125 57.1875 -104.578125 C 67.0625 -104.578125 75.171875 -102.800781 81.515625 -99.25 C 87.867188 -95.707031 92.359375 -90.410156 94.984375 -83.359375 L 87.09375 -78.703125 L 85.328125 -78.703125 C 82.648438 -84.054688 79.03125 -87.894531 74.46875 -90.21875 C 69.90625 -92.550781 64.144531 -93.71875 57.1875 -93.71875 C 34.570312 -93.71875 23.265625 -79.660156 23.265625 -51.546875 C 23.265625 -36.929688 26.109375 -26.257812 31.796875 -19.53125 C 37.492188 -12.8125 45.460938 -9.453125 55.703125 -9.453125 C 65.109375 -9.453125 72.148438 -11.585938 76.828125 -15.859375 C 81.503906 -20.140625 83.84375 -26.890625 83.84375 -36.109375 L 83.84375 -45.203125 L 54.515625 -45.203125 L 54.515625 -54.9375 L 95.625 -54.9375 L 95.625 0 L 84.40625 0 L 84.40625 -13.828125 L 82.9375 -14.171875 C 80.207031 -8.859375 76.410156 -4.921875 71.546875 -2.359375 C 66.679688 0.203125 60.910156 1.484375 54.234375 1.484375 Z M 54.234375 1.484375 "/></g></g></g></g></g></svg>