<svg xmlns="http://www.w3.org/2000/svg" xmlns:xlink="http://www.w3.org/1999/xlink" width="382" zoomAndPan="magnify" viewBox="0 0 286.5 286.5" height="382" preserveAspectRatio="xMidYMid meet" version="1.0"><path fill="#004aad" d="M 83.777344 1 C 68.558594 1.71875 58.171875 4.148438 49.085938 7.714844 C 39.6875 11.378906 31.71875 16.292969 23.789062 24.25 C 15.863281 32.207031 10.980469 40.183594 7.34375 49.597656 C 3.820312 58.699219 1.4375 69.101562 0.765625 84.324219 C 0.0898438 99.546875 -0.0585938 104.441406 0.0195312 143.277344 C 0.0898438 182.109375 0.261719 186.976562 1 202.230469 C 1.726562 217.441406 4.148438 227.832031 7.714844 236.917969 C 11.386719 246.316406 16.296875 254.285156 24.257812 262.214844 C 32.214844 270.144531 40.183594 275.015625 49.621094 278.660156 C 58.714844 282.175781 69.117188 284.570312 84.339844 285.238281 C 99.558594 285.90625 104.460938 286.058594 143.28125 285.984375 C 182.105469 285.910156 186.992188 285.738281 202.242188 285.015625 C 217.496094 284.289062 227.828125 281.855469 236.917969 278.300781 C 246.320312 274.625 254.289062 269.722656 262.214844 261.761719 C 270.140625 253.796875 275.019531 245.816406 278.652344 236.394531 C 282.179688 227.300781 284.570312 216.902344 285.230469 201.691406 C 285.898438 186.425781 286.058594 181.554688 285.984375 142.726562 C 285.90625 103.898438 285.734375 99.03125 285.007812 83.78125 C 284.285156 68.53125 281.863281 58.175781 278.296875 49.082031 C 274.621094 39.679688 269.714844 31.722656 261.761719 23.785156 C 253.804688 15.847656 245.816406 10.972656 236.402344 7.347656 C 227.300781 3.824219 216.902344 1.425781 201.683594 0.769531 C 186.460938 0.109375 181.5625 -0.0585938 142.726562 0.015625 C 103.890625 0.0898438 99.027344 0.257812 83.777344 1 M 85.445312 259.511719 C 71.503906 258.90625 63.933594 256.589844 58.886719 254.648438 C 52.207031 252.074219 47.449219 248.964844 42.417969 243.984375 C 37.390625 239.003906 34.304688 234.230469 31.695312 227.5625 C 29.734375 222.515625 27.375 214.953125 26.722656 201.011719 C 26.015625 185.945312 25.867188 181.417969 25.78125 143.238281 C 25.699219 105.0625 25.847656 100.542969 26.507812 85.46875 C 27.101562 71.539062 29.433594 63.957031 31.367188 58.914062 C 33.941406 52.226562 37.042969 47.476562 42.035156 42.449219 C 47.023438 37.425781 51.785156 34.332031 58.457031 31.722656 C 63.5 29.753906 71.058594 27.414062 84.996094 26.75 C 100.078125 26.035156 104.597656 25.894531 142.769531 25.808594 C 180.941406 25.726562 185.472656 25.871094 200.558594 26.535156 C 214.488281 27.140625 222.074219 29.449219 227.109375 31.398438 C 233.792969 33.972656 238.550781 37.0625 243.574219 42.0625 C 248.597656 47.058594 251.695312 51.804688 254.304688 58.492188 C 256.273438 63.515625 258.613281 71.074219 259.273438 85.023438 C 259.992188 100.101562 260.152344 104.625 260.222656 142.792969 C 260.289062 180.964844 260.15625 185.496094 259.496094 200.566406 C 258.886719 214.507812 256.574219 222.082031 254.632812 227.132812 C 252.058594 233.8125 248.957031 238.574219 243.960938 243.59375 C 238.96875 248.617188 234.214844 251.710938 227.539062 254.320312 C 222.503906 256.285156 214.933594 258.628906 201.007812 259.292969 C 185.925781 260.003906 181.40625 260.152344 143.222656 260.234375 C 105.035156 260.320312 100.527344 260.164062 85.449219 259.511719 M 202.023438 66.570312 C 202.023438 67.132812 202.054688 67.695312 202.109375 68.253906 C 202.164062 68.8125 202.25 69.367188 202.359375 69.917969 C 202.46875 70.46875 202.605469 71.015625 202.769531 71.550781 C 202.933594 72.089844 203.125 72.617188 203.339844 73.136719 C 203.558594 73.65625 203.796875 74.164062 204.0625 74.65625 C 204.328125 75.152344 204.621094 75.632812 204.933594 76.101562 C 205.246094 76.566406 205.582031 77.019531 205.9375 77.453125 C 206.296875 77.886719 206.671875 78.300781 207.070312 78.699219 C 207.46875 79.09375 207.886719 79.472656 208.320312 79.828125 C 208.757812 80.183594 209.207031 80.515625 209.675781 80.828125 C 210.144531 81.140625 210.625 81.425781 211.121094 81.691406 C 211.617188 81.953125 212.125 82.195312 212.644531 82.410156 C 213.164062 82.621094 213.695312 82.8125 214.230469 82.972656 C 214.769531 83.136719 215.316406 83.269531 215.867188 83.378906 C 216.417969 83.488281 216.972656 83.570312 217.53125 83.625 C 218.09375 83.675781 218.652344 83.703125 219.214844 83.703125 C 219.777344 83.703125 220.335938 83.671875 220.898438 83.617188 C 221.457031 83.5625 222.011719 83.476562 222.5625 83.367188 C 223.113281 83.257812 223.65625 83.117188 224.195312 82.953125 C 224.734375 82.789062 225.261719 82.601562 225.78125 82.382812 C 226.296875 82.167969 226.804688 81.925781 227.300781 81.660156 C 227.796875 81.394531 228.277344 81.105469 228.742188 80.792969 C 229.210938 80.480469 229.660156 80.144531 230.09375 79.789062 C 230.527344 79.429688 230.945312 79.050781 231.339844 78.652344 C 231.738281 78.257812 232.113281 77.839844 232.46875 77.402344 C 232.824219 76.96875 233.160156 76.515625 233.46875 76.050781 C 233.78125 75.582031 234.070312 75.097656 234.332031 74.601562 C 234.597656 74.105469 234.835938 73.597656 235.050781 73.078125 C 235.265625 72.558594 235.453125 72.03125 235.613281 71.492188 C 235.777344 70.953125 235.910156 70.410156 236.019531 69.859375 C 236.128906 69.308594 236.210938 68.75 236.265625 68.191406 C 236.320312 67.632812 236.34375 67.070312 236.34375 66.507812 C 236.34375 65.949219 236.3125 65.386719 236.257812 64.828125 C 236.203125 64.269531 236.117188 63.714844 236.007812 63.160156 C 235.898438 62.609375 235.757812 62.066406 235.59375 61.527344 C 235.429688 60.992188 235.242188 60.464844 235.023438 59.945312 C 234.808594 59.425781 234.566406 58.917969 234.300781 58.421875 C 234.035156 57.929688 233.746094 57.449219 233.433594 56.980469 C 233.121094 56.515625 232.785156 56.0625 232.425781 55.628906 C 232.070312 55.195312 231.691406 54.78125 231.292969 54.382812 C 230.894531 53.988281 230.476562 53.613281 230.042969 53.257812 C 229.609375 52.898438 229.15625 52.566406 228.6875 52.253906 C 228.21875 51.945312 227.738281 51.65625 227.242188 51.390625 C 226.746094 51.128906 226.238281 50.890625 225.71875 50.675781 C 225.199219 50.460938 224.667969 50.273438 224.132812 50.113281 C 223.59375 49.949219 223.046875 49.8125 222.496094 49.707031 C 221.945312 49.597656 221.390625 49.515625 220.832031 49.460938 C 220.269531 49.40625 219.710938 49.382812 219.148438 49.382812 C 218.585938 49.382812 218.027344 49.414062 217.46875 49.46875 C 216.90625 49.523438 216.351562 49.609375 215.800781 49.71875 C 215.25 49.832031 214.707031 49.96875 214.167969 50.132812 C 213.632812 50.296875 213.105469 50.484375 212.585938 50.703125 C 212.066406 50.917969 211.558594 51.160156 211.066406 51.425781 C 210.570312 51.691406 210.089844 51.980469 209.621094 52.292969 C 209.15625 52.605469 208.707031 52.941406 208.273438 53.296875 C 207.839844 53.65625 207.421875 54.035156 207.027344 54.429688 C 206.628906 54.828125 206.253906 55.246094 205.898438 55.679688 C 205.542969 56.117188 205.210938 56.566406 204.898438 57.035156 C 204.585938 57.503906 204.300781 57.984375 204.035156 58.480469 C 203.773438 58.976562 203.53125 59.484375 203.320312 60.003906 C 203.105469 60.523438 202.917969 61.050781 202.753906 61.589844 C 202.59375 62.128906 202.457031 62.671875 202.347656 63.222656 C 202.238281 63.773438 202.15625 64.332031 202.105469 64.890625 C 202.050781 65.449219 202.023438 66.007812 202.023438 66.570312 M 69.574219 143.144531 C 69.65625 183.699219 102.59375 216.5 143.136719 216.421875 C 183.683594 216.34375 216.507812 183.414062 216.433594 142.859375 C 216.355469 102.300781 183.410156 69.492188 142.859375 69.570312 C 102.304688 69.652344 69.5 102.59375 69.574219 143.144531 M 95.332031 143.09375 C 95.332031 141.53125 95.402344 139.972656 95.554688 138.417969 C 95.703125 136.867188 95.929688 135.324219 96.230469 133.792969 C 96.53125 132.257812 96.910156 130.746094 97.359375 129.25 C 97.808594 127.757812 98.332031 126.289062 98.925781 124.84375 C 99.519531 123.402344 100.183594 121.988281 100.917969 120.609375 C 101.652344 119.234375 102.449219 117.894531 103.316406 116.59375 C 104.179688 115.292969 105.105469 114.039062 106.09375 112.832031 C 107.082031 111.621094 108.125 110.464844 109.226562 109.359375 C 110.328125 108.253906 111.484375 107.203125 112.6875 106.210938 C 113.894531 105.21875 115.144531 104.285156 116.441406 103.417969 C 117.734375 102.546875 119.070312 101.742188 120.445312 101.003906 C 121.824219 100.265625 123.230469 99.597656 124.671875 98.996094 C 126.113281 98.394531 127.578125 97.867188 129.074219 97.410156 C 130.566406 96.957031 132.078125 96.574219 133.609375 96.265625 C 135.140625 95.957031 136.679688 95.726562 138.234375 95.570312 C 139.789062 95.414062 141.34375 95.335938 142.90625 95.332031 C 144.46875 95.328125 146.023438 95.402344 147.578125 95.550781 C 149.132812 95.703125 150.675781 95.925781 152.207031 96.230469 C 153.738281 96.53125 155.25 96.90625 156.746094 97.355469 C 158.242188 97.808594 159.710938 98.328125 161.152344 98.921875 C 162.597656 99.519531 164.007812 100.183594 165.386719 100.914062 C 166.765625 101.648438 168.105469 102.449219 169.402344 103.3125 C 170.703125 104.175781 171.957031 105.101562 173.167969 106.089844 C 174.375 107.078125 175.53125 108.125 176.640625 109.226562 C 177.746094 110.328125 178.792969 111.480469 179.785156 112.683594 C 180.78125 113.890625 181.710938 115.140625 182.582031 116.4375 C 183.449219 117.734375 184.253906 119.070312 184.992188 120.445312 C 185.734375 121.820312 186.402344 123.226562 187.003906 124.667969 C 187.601562 126.109375 188.132812 127.578125 188.585938 129.070312 C 189.042969 130.5625 189.425781 132.074219 189.734375 133.605469 C 190.039062 135.136719 190.273438 136.679688 190.429688 138.230469 C 190.585938 139.785156 190.664062 141.34375 190.667969 142.902344 C 190.671875 144.464844 190.597656 146.023438 190.445312 147.574219 C 190.296875 149.128906 190.070312 150.671875 189.769531 152.203125 C 189.46875 153.734375 189.09375 155.25 188.640625 156.742188 C 188.191406 158.238281 187.667969 159.707031 187.074219 161.152344 C 186.480469 162.59375 185.816406 164.007812 185.082031 165.382812 C 184.351562 166.761719 183.550781 168.101562 182.6875 169.402344 C 181.820312 170.699219 180.894531 171.957031 179.90625 173.164062 C 178.917969 174.371094 177.875 175.53125 176.773438 176.636719 C 175.671875 177.742188 174.519531 178.792969 173.3125 179.785156 C 172.109375 180.777344 170.859375 181.707031 169.5625 182.578125 C 168.265625 183.449219 166.929688 184.253906 165.554688 184.992188 C 164.179688 185.730469 162.769531 186.398438 161.328125 187 C 159.886719 187.601562 158.421875 188.128906 156.929688 188.585938 C 155.433594 189.039062 153.921875 189.421875 152.394531 189.730469 C 150.863281 190.039062 149.320312 190.269531 147.765625 190.425781 C 146.214844 190.582031 144.65625 190.660156 143.097656 190.664062 C 141.535156 190.667969 139.976562 190.59375 138.421875 190.445312 C 136.867188 190.296875 135.324219 190.070312 133.792969 189.769531 C 132.261719 189.46875 130.75 189.089844 129.253906 188.640625 C 127.757812 188.191406 126.289062 187.667969 124.847656 187.074219 C 123.402344 186.480469 121.992188 185.816406 120.613281 185.082031 C 119.234375 184.347656 117.894531 183.550781 116.597656 182.6875 C 115.296875 181.820312 114.042969 180.894531 112.832031 179.90625 C 111.625 178.917969 110.464844 177.875 109.359375 176.773438 C 108.253906 175.671875 107.203125 174.515625 106.210938 173.3125 C 105.21875 172.105469 104.289062 170.855469 103.417969 169.558594 C 102.546875 168.265625 101.742188 166.929688 101.003906 165.550781 C 100.265625 164.175781 99.597656 162.769531 98.996094 161.328125 C 98.398438 159.886719 97.867188 158.417969 97.414062 156.925781 C 96.957031 155.433594 96.574219 153.921875 96.265625 152.390625 C 95.960938 150.859375 95.726562 149.316406 95.570312 147.765625 C 95.414062 146.210938 95.335938 144.652344 95.332031 143.09375 " fill-opacity="1" fill-rule="nonzero"/></svg>