<svg xmlns="http://www.w3.org/2000/svg" xmlns:xlink="http://www.w3.org/1999/xlink" width="382" zoomAndPan="magnify" viewBox="0 0 286.5 286.5" height="382" preserveAspectRatio="xMidYMid meet" version="1.0"><path fill="#004aad" d="M 260.128906 0 L 25.871094 0 C 11.582031 0 0 11.582031 0 25.871094 L 0 260.128906 C 0 274.417969 11.582031 286 25.871094 286 L 260.128906 286 C 274.417969 286 286 274.417969 286 260.128906 L 286 25.871094 C 286 11.582031 274.417969 0 260.128906 0 Z M 88.5 246.953125 C 88.5 251.109375 85.128906 254.480469 80.972656 254.480469 L 48.921875 254.480469 C 44.765625 254.480469 41.394531 251.109375 41.394531 246.953125 L 41.394531 112.605469 C 41.394531 108.449219 44.765625 105.078125 48.921875 105.078125 L 80.972656 105.078125 C 85.128906 105.078125 88.5 108.449219 88.5 112.605469 Z M 64.949219 92.414062 C 48.132812 92.414062 34.5 78.78125 34.5 61.964844 C 34.5 45.152344 48.132812 31.519531 64.949219 31.519531 C 81.761719 31.519531 95.394531 45.152344 95.394531 61.964844 C 95.394531 78.78125 81.761719 92.414062 64.949219 92.414062 Z M 255.984375 247.558594 C 255.984375 251.382812 252.886719 254.480469 249.0625 254.480469 L 214.671875 254.480469 C 210.851562 254.480469 207.75 251.382812 207.75 247.558594 L 207.75 184.542969 C 207.75 175.140625 210.507812 143.347656 183.183594 143.347656 C 161.988281 143.347656 157.691406 165.109375 156.828125 174.875 L 156.828125 247.558594 C 156.828125 251.382812 153.726562 254.480469 149.902344 254.480469 L 116.644531 254.480469 C 112.820312 254.480469 109.71875 251.382812 109.71875 247.558594 L 109.71875 112 C 109.71875 108.175781 112.820312 105.078125 116.644531 105.078125 L 149.902344 105.078125 C 153.726562 105.078125 156.828125 108.175781 156.828125 112 L 156.828125 123.71875 C 164.6875 111.925781 176.363281 102.824219 201.234375 102.824219 C 256.300781 102.824219 255.984375 154.269531 255.984375 182.539062 Z M 255.984375 247.558594 " fill-opacity="1" fill-rule="nonzero"/></svg>