<svg xmlns="http://www.w3.org/2000/svg" xmlns:xlink="http://www.w3.org/1999/xlink" width="2000" zoomAndPan="magnify" viewBox="0 0 1500 599.999999" height="800" preserveAspectRatio="xMidYMid meet" version="1.0"><defs><g/><clipPath id="a661cb7e85"><path d="M 704.886719 157 L 729 157 L 729 177 L 704.886719 177 Z M 704.886719 157 " clip-rule="nonzero"/></clipPath><clipPath id="116ecb658c"><path d="M 857 8.53125 L 1131 8.53125 L 1131 150 L 857 150 Z M 857 8.53125 " clip-rule="nonzero"/></clipPath><clipPath id="375b3487b8"><rect x="0" width="1294" y="0" height="395"/></clipPath><clipPath id="c16394fd10"><rect x="0" width="1358" y="0" height="194"/></clipPath></defs><path fill="#cdcdcd" d="M 817.019531 130.652344 C 800.195312 136.335938 774.714844 144.71875 747.410156 152.054688 C 745.3125 152.605469 744.097656 154.757812 744.652344 156.855469 C 745.09375 158.621094 746.691406 159.722656 748.402344 159.722656 C 748.734375 159.722656 749.0625 159.667969 749.394531 159.613281 C 776.917969 152.21875 802.570312 143.78125 819.449219 138.101562 C 821.488281 137.4375 822.589844 135.175781 821.875 133.136719 C 821.269531 131.039062 819.0625 129.9375 817.019531 130.652344 Z M 817.019531 130.652344 " fill-opacity="1" fill-rule="nonzero"/><g clip-path="url(#a661cb7e85)"><path fill="#cdcdcd" d="M 723.910156 157.902344 C 703.171875 162.757812 683.148438 166.339844 664.449219 168.660156 C 662.296875 168.933594 660.808594 170.863281 661.085938 173.015625 C 661.304688 175 663.015625 176.4375 664.945312 176.4375 C 665.109375 176.4375 665.277344 176.4375 665.441406 176.378906 C 684.472656 174.0625 704.714844 170.367188 725.730469 165.457031 C 727.828125 164.960938 729.152344 162.867188 728.65625 160.769531 C 728.101562 158.730469 726.007812 157.40625 723.910156 157.902344 Z M 723.910156 157.902344 " fill-opacity="1" fill-rule="nonzero"/></g><path fill="#cdcdcd" d="M 850.28125 119.179688 L 835.554688 124.308594 C 833.511719 125.027344 832.464844 127.234375 833.125 129.273438 C 833.679688 130.875 835.167969 131.921875 836.824219 131.921875 C 837.265625 131.921875 837.648438 131.867188 838.089844 131.703125 L 852.820312 126.570312 C 854.859375 125.855469 855.90625 123.648438 855.246094 121.605469 C 854.527344 119.566406 852.324219 118.464844 850.28125 119.179688 Z M 850.28125 119.179688 " fill-opacity="1" fill-rule="nonzero"/><g clip-path="url(#116ecb658c)"><path fill="#cdcdcd" d="M 1128.5625 37.378906 C 1124.425781 32.910156 1116.757812 25.738281 1108.042969 23.367188 C 1091.992188 19.011719 1045.546875 32.304688 1033.082031 36.386719 C 1031.09375 37.046875 1028.886719 36.992188 1026.957031 36.21875 L 958.285156 9.46875 C 956.351562 8.695312 954.257812 8.640625 952.273438 9.246094 L 927.175781 17.023438 C 924.140625 17.960938 923.367188 21.878906 925.738281 23.917969 L 970.253906 62.089844 C 970.914062 62.640625 970.75 63.691406 969.976562 64.019531 L 905.496094 91.105469 C 902.460938 92.371094 898.988281 91.929688 896.394531 89.945312 L 878.136719 75.769531 C 875.601562 73.839844 872.234375 73.34375 869.257812 74.5 L 858.941406 78.636719 C 857.066406 79.355469 856.570312 81.835938 858.003906 83.214844 L 870.691406 98.828125 C 872.34375 100.425781 873.28125 102.632812 873.394531 104.949219 L 873.945312 118.132812 C 873.945312 118.738281 874.222656 119.34375 874.664062 119.785156 L 884.535156 130.265625 C 885.859375 131.644531 887.902344 132.085938 889.664062 131.371094 L 896.394531 128.722656 C 898.160156 128.003906 899.59375 126.738281 900.640625 125.191406 L 901.304688 124.144531 C 902.40625 122.378906 904.117188 121.054688 906.101562 120.394531 L 979.742188 95.902344 C 980.679688 95.570312 981.617188 96.453125 981.394531 97.445312 L 969.921875 142.402344 C 968.765625 147.035156 973.230469 151.117188 977.753906 149.460938 L 1002.027344 140.527344 C 1003.625 139.921875 1005.003906 138.925781 1006.050781 137.546875 L 1048.964844 82.167969 C 1050.015625 80.789062 1051.394531 79.796875 1053.046875 79.191406 C 1061.984375 75.988281 1092.542969 62.367188 1114.109375 54.421875 C 1120.671875 52.050781 1124.867188 49.84375 1127.511719 47.96875 C 1130.988281 45.597656 1131.484375 40.578125 1128.5625 37.378906 Z M 1128.5625 37.378906 " fill-opacity="1" fill-rule="nonzero"/></g><g transform="matrix(1, 0, 0, 1, 102, 112)"><g clip-path="url(#375b3487b8)"><g fill="#004aad" fill-opacity="1"><g transform="translate(2.365707, 309.53445)"><g><path d="M 91.640625 2.96875 C 77.304688 2.96875 64.550781 1.203125 53.375 -2.328125 C 42.207031 -5.867188 32.898438 -10.515625 25.453125 -16.265625 C 18.003906 -22.015625 12.300781 -28.332031 8.34375 -35.21875 L 30.828125 -62.640625 L 34.359375 -62.640625 C 40.585938 -53.410156 48.484375 -46.0625 58.046875 -40.59375 C 67.617188 -35.125 78.816406 -32.390625 91.640625 -32.390625 C 102.578125 -32.390625 110.828125 -34.695312 116.390625 -39.3125 C 121.953125 -43.9375 124.734375 -50.300781 124.734375 -58.40625 C 124.734375 -63.3125 123.835938 -67.410156 122.046875 -70.703125 C 120.253906 -74.003906 117.28125 -76.832031 113.125 -79.1875 C 108.976562 -81.550781 103.375 -83.582031 96.3125 -85.28125 L 69.71875 -91.359375 C 51.144531 -95.597656 37.304688 -102.644531 28.203125 -112.5 C 19.109375 -122.351562 14.5625 -135.148438 14.5625 -150.890625 C 14.5625 -162.578125 17.484375 -172.851562 23.328125 -181.71875 C 29.179688 -190.582031 37.691406 -197.460938 48.859375 -202.359375 C 60.035156 -207.265625 73.398438 -209.71875 88.953125 -209.71875 C 104.890625 -209.71875 118.535156 -207.617188 129.890625 -203.421875 C 141.253906 -199.234375 150.847656 -192.800781 158.671875 -184.125 L 138.453125 -156.40625 L 134.90625 -156.40625 C 129.0625 -162.53125 122.367188 -167.125 114.828125 -170.1875 C 107.285156 -173.257812 98.660156 -174.796875 88.953125 -174.796875 C 77.734375 -174.796875 69.203125 -172.816406 63.359375 -168.859375 C 57.515625 -164.898438 54.59375 -159.429688 54.59375 -152.453125 C 54.59375 -145.941406 56.640625 -140.753906 60.734375 -136.890625 C 64.835938 -133.023438 71.929688 -130.007812 82.015625 -127.84375 L 109.171875 -122.1875 C 129.253906 -117.945312 143.820312 -110.757812 152.875 -100.625 C 161.925781 -90.488281 166.453125 -77.265625 166.453125 -60.953125 C 166.453125 -48.035156 163.671875 -36.789062 158.109375 -27.21875 C 152.546875 -17.65625 144.15625 -10.234375 132.9375 -4.953125 C 121.71875 0.328125 107.953125 2.96875 91.640625 2.96875 Z M 91.640625 2.96875 "/></g></g></g><g fill="#004aad" fill-opacity="1"><g transform="translate(177.574155, 309.53445)"><g><path d="M 165.75 -206.75 L 165.75 -172.390625 L 106.0625 -172.390625 L 106.0625 0 L 65.328125 0 L 65.328125 -172.390625 L 5.65625 -172.390625 L 5.65625 -206.75 Z M 165.75 -206.75 "/></g></g></g><g fill="#004aad" fill-opacity="1"><g transform="translate(348.964664, 309.53445)"><g><path d="M 26.875 0 L 26.875 -206.75 L 109.875 -206.75 C 131.28125 -206.75 147.425781 -201.820312 158.3125 -191.96875 C 169.207031 -182.125 174.65625 -168.523438 174.65625 -151.171875 C 174.65625 -138.640625 171.472656 -128.363281 165.109375 -120.34375 C 158.742188 -112.332031 149.242188 -106.207031 136.609375 -101.96875 L 136.609375 -99 C 143.117188 -96.164062 148.375 -91.96875 152.375 -86.40625 C 156.382812 -80.84375 160.179688 -72.59375 163.765625 -61.65625 L 184.40625 0 L 142.40625 0 L 122.1875 -61.796875 C 120.113281 -68.023438 117.78125 -72.859375 115.1875 -76.296875 C 112.59375 -79.734375 109.289062 -82.226562 105.28125 -83.78125 C 101.28125 -85.34375 96.070312 -86.125 89.65625 -86.125 L 67.734375 -86.125 L 67.734375 0 Z M 104.9375 -118.515625 C 124.726562 -118.515625 134.625 -127.753906 134.625 -146.234375 C 134.625 -164.992188 124.726562 -174.375 104.9375 -174.375 L 67.734375 -174.375 L 67.734375 -118.515625 Z M 104.9375 -118.515625 "/></g></g></g><g fill="#004aad" fill-opacity="1"><g transform="translate(542.273936, 309.53445)"><g><path d="M 198.40625 0 L 155.421875 0 L 139.859375 -47.65625 L 60.671875 -47.65625 L 45.109375 0 L 3.109375 0 L 74.53125 -206.75 L 127 -206.75 Z M 98.28125 -163.625 L 71.703125 -82.015625 L 128.546875 -82.015625 L 101.828125 -163.625 Z M 98.28125 -163.625 "/></g></g></g><g fill="#004aad" fill-opacity="1"><g transform="translate(725.400382, 309.53445)"><g><path d="M 165.75 -206.75 L 165.75 -172.390625 L 106.0625 -172.390625 L 106.0625 0 L 65.328125 0 L 65.328125 -172.390625 L 5.65625 -172.390625 L 5.65625 -206.75 Z M 165.75 -206.75 "/></g></g></g><g fill="#004aad" fill-opacity="1"><g transform="translate(896.790845, 309.53445)"><g><path d="M 109.59375 2.96875 C 81.125 2.96875 60.003906 -3.796875 46.234375 -17.328125 C 32.472656 -30.859375 25.59375 -50.914062 25.59375 -77.5 L 25.59375 -206.75 L 65.625 -206.75 L 65.625 -77.78125 C 65.625 -62.695312 69.25 -51.382812 76.5 -43.84375 C 83.757812 -36.300781 94.789062 -32.53125 109.59375 -32.53125 C 138.914062 -32.53125 153.578125 -47.613281 153.578125 -77.78125 L 153.578125 -206.75 L 193.609375 -206.75 L 193.609375 -77.5 C 193.609375 -50.914062 186.722656 -30.859375 172.953125 -17.328125 C 159.191406 -3.796875 138.070312 2.96875 109.59375 2.96875 Z M 109.59375 2.96875 "/></g></g></g><g fill="#004aad" fill-opacity="1"><g transform="translate(1115.978442, 309.53445)"><g><path d="M 91.640625 2.96875 C 77.304688 2.96875 64.550781 1.203125 53.375 -2.328125 C 42.207031 -5.867188 32.898438 -10.515625 25.453125 -16.265625 C 18.003906 -22.015625 12.300781 -28.332031 8.34375 -35.21875 L 30.828125 -62.640625 L 34.359375 -62.640625 C 40.585938 -53.410156 48.484375 -46.0625 58.046875 -40.59375 C 67.617188 -35.125 78.816406 -32.390625 91.640625 -32.390625 C 102.578125 -32.390625 110.828125 -34.695312 116.390625 -39.3125 C 121.953125 -43.9375 124.734375 -50.300781 124.734375 -58.40625 C 124.734375 -63.3125 123.835938 -67.410156 122.046875 -70.703125 C 120.253906 -74.003906 117.28125 -76.832031 113.125 -79.1875 C 108.976562 -81.550781 103.375 -83.582031 96.3125 -85.28125 L 69.71875 -91.359375 C 51.144531 -95.597656 37.304688 -102.644531 28.203125 -112.5 C 19.109375 -122.351562 14.5625 -135.148438 14.5625 -150.890625 C 14.5625 -162.578125 17.484375 -172.851562 23.328125 -181.71875 C 29.179688 -190.582031 37.691406 -197.460938 48.859375 -202.359375 C 60.035156 -207.265625 73.398438 -209.71875 88.953125 -209.71875 C 104.890625 -209.71875 118.535156 -207.617188 129.890625 -203.421875 C 141.253906 -199.234375 150.847656 -192.800781 158.671875 -184.125 L 138.453125 -156.40625 L 134.90625 -156.40625 C 129.0625 -162.53125 122.367188 -167.125 114.828125 -170.1875 C 107.285156 -173.257812 98.660156 -174.796875 88.953125 -174.796875 C 77.734375 -174.796875 69.203125 -172.816406 63.359375 -168.859375 C 57.515625 -164.898438 54.59375 -159.429688 54.59375 -152.453125 C 54.59375 -145.941406 56.640625 -140.753906 60.734375 -136.890625 C 64.835938 -133.023438 71.929688 -130.007812 82.015625 -127.84375 L 109.171875 -122.1875 C 129.253906 -117.945312 143.820312 -110.757812 152.875 -100.625 C 161.925781 -90.488281 166.453125 -77.265625 166.453125 -60.953125 C 166.453125 -48.035156 163.671875 -36.789062 158.109375 -27.21875 C 152.546875 -17.65625 144.15625 -10.234375 132.9375 -4.953125 C 121.71875 0.328125 107.953125 2.96875 91.640625 2.96875 Z M 91.640625 2.96875 "/></g></g></g></g></g><g transform="matrix(1, 0, 0, 1, 99, 406)"><g clip-path="url(#c16394fd10)"><g fill="#ffffff" fill-opacity="1"><g transform="translate(1.691366, 154.510782)"><g><path d="M 26.796875 0 L 15.578125 0 L 15.578125 -103.09375 L 33.5625 -103.09375 L 64.8125 -15.796875 L 66.28125 -15.796875 L 97.53125 -103.09375 L 114.875 -103.09375 L 114.875 0 L 103.375 0 L 103.375 -84.125 L 101.609375 -84.40625 L 71.15625 0 L 59.09375 0 L 28.5625 -84.40625 L 26.796875 -84.125 Z M 26.796875 0 "/></g></g></g><g fill="#ffffff" fill-opacity="1"><g transform="translate(188.838614, 154.510782)"><g><path d="M 92.796875 0 L 79.828125 0 L 70.3125 -28.28125 L 26.375 -28.28125 L 16.78125 0 L 4.09375 0 L 40.046875 -103.09375 L 56.84375 -103.09375 Z M 47.453125 -90.609375 L 29.765625 -38.4375 L 66.84375 -38.4375 L 49.21875 -90.609375 Z M 47.453125 -90.609375 "/></g></g></g><g fill="#ffffff" fill-opacity="1"><g transform="translate(342.348354, 154.510782)"><g><path d="M 15.578125 0 L 15.578125 -103.09375 L 53.03125 -103.09375 C 59.9375 -103.09375 65.738281 -101.953125 70.4375 -99.671875 C 75.144531 -97.390625 78.671875 -94.171875 81.015625 -90.015625 C 83.367188 -85.859375 84.546875 -80.9375 84.546875 -75.25 C 84.546875 -68.851562 82.945312 -63.570312 79.75 -59.40625 C 76.5625 -55.25 71.582031 -52.132812 64.8125 -50.0625 L 64.8125 -48.59375 C 68.144531 -47.269531 70.867188 -45.195312 72.984375 -42.375 C 75.097656 -39.5625 77.050781 -35.359375 78.84375 -29.765625 L 88.359375 0 L 75.875 0 L 65.578125 -31.515625 C 64.359375 -35.234375 62.945312 -38.148438 61.34375 -40.265625 C 59.75 -42.378906 57.726562 -43.90625 55.28125 -44.84375 C 52.84375 -45.789062 49.742188 -46.265625 45.984375 -46.265625 L 27.71875 -46.265625 L 27.71875 0 Z M 52.75 -56.5625 C 59.1875 -56.5625 63.976562 -58.050781 67.125 -61.03125 C 70.28125 -64.019531 71.859375 -68.566406 71.859375 -74.671875 C 71.859375 -80.785156 70.28125 -85.332031 67.125 -88.3125 C 63.976562 -91.300781 59.1875 -92.796875 52.75 -92.796875 L 27.71875 -92.796875 L 27.71875 -56.5625 Z M 52.75 -56.5625 "/></g></g></g><g fill="#ffffff" fill-opacity="1"><g transform="translate(494.447718, 154.510782)"><g><path d="M 15.578125 0 L 15.578125 -103.09375 L 27.71875 -103.09375 L 27.71875 -58.03125 L 29.90625 -58.03125 L 72.21875 -103.09375 L 85.46875 -103.09375 L 85.46875 -101.328125 L 40.828125 -53.171875 L 89 -1.765625 L 89 0 L 75.109375 0 L 29.90625 -47.453125 L 27.71875 -47.453125 L 27.71875 0 Z M 15.578125 0 "/></g></g></g><g fill="#ffffff" fill-opacity="1"><g transform="translate(642.033874, 154.510782)"><g><path d="M 27.71875 -48.59375 L 27.71875 -10.015625 L 80.25 -10.015625 L 80.25 0 L 15.578125 0 L 15.578125 -103.09375 L 79.125 -103.09375 L 79.125 -93.078125 L 27.71875 -93.078125 L 27.71875 -58.59375 L 73.0625 -58.59375 L 73.0625 -48.59375 Z M 27.71875 -48.59375 "/></g></g></g><g fill="#ffffff" fill-opacity="1"><g transform="translate(785.741503, 154.510782)"><g><path d="M 80.46875 -103.09375 L 80.46875 -92.796875 L 48.171875 -92.796875 L 48.171875 0 L 36.109375 0 L 36.109375 -92.796875 L 3.8125 -92.796875 L 3.8125 -103.09375 Z M 80.46875 -103.09375 "/></g></g></g><g fill="#ffffff" fill-opacity="1"><g transform="translate(926.557893, 154.510782)"><g><path d="M 27.71875 0 L 15.578125 0 L 15.578125 -103.09375 L 27.71875 -103.09375 Z M 27.71875 0 "/></g></g></g><g fill="#ffffff" fill-opacity="1"><g transform="translate(1026.54374, 154.510782)"><g><path d="M 27.4375 0 L 15.578125 0 L 15.578125 -103.09375 L 30.46875 -103.09375 L 80.75 -24.328125 L 82.5 -24.609375 L 82.5 -103.09375 L 94.28125 -103.09375 L 94.28125 0 L 81.59375 0 L 29.1875 -84.265625 L 27.4375 -83.984375 Z M 27.4375 0 "/></g></g></g><g fill="#ffffff" fill-opacity="1"><g transform="translate(1193.09957, 154.510782)"><g><path d="M 54.234375 1.484375 C 45.578125 1.484375 37.945312 -0.488281 31.34375 -4.4375 C 24.738281 -8.382812 19.578125 -14.332031 15.859375 -22.28125 C 12.148438 -30.226562 10.296875 -39.984375 10.296875 -51.546875 C 10.296875 -63.109375 12.28125 -72.863281 16.25 -80.8125 C 20.226562 -88.757812 25.742188 -94.707031 32.796875 -98.65625 C 39.847656 -102.601562 47.976562 -104.578125 57.1875 -104.578125 C 67.0625 -104.578125 75.171875 -102.800781 81.515625 -99.25 C 87.867188 -95.707031 92.359375 -90.410156 94.984375 -83.359375 L 87.09375 -78.703125 L 85.328125 -78.703125 C 82.648438 -84.054688 79.03125 -87.894531 74.46875 -90.21875 C 69.90625 -92.550781 64.144531 -93.71875 57.1875 -93.71875 C 34.570312 -93.71875 23.265625 -79.660156 23.265625 -51.546875 C 23.265625 -36.929688 26.109375 -26.257812 31.796875 -19.53125 C 37.492188 -12.8125 45.460938 -9.453125 55.703125 -9.453125 C 65.109375 -9.453125 72.148438 -11.585938 76.828125 -15.859375 C 81.503906 -20.140625 83.84375 -26.890625 83.84375 -36.109375 L 83.84375 -45.203125 L 54.515625 -45.203125 L 54.515625 -54.9375 L 95.625 -54.9375 L 95.625 0 L 84.40625 0 L 84.40625 -13.828125 L 82.9375 -14.171875 C 80.207031 -8.859375 76.410156 -4.921875 71.546875 -2.359375 C 66.679688 0.203125 60.910156 1.484375 54.234375 1.484375 Z M 54.234375 1.484375 "/></g></g></g></g></g></svg>