<svg xmlns="http://www.w3.org/2000/svg" xmlns:xlink="http://www.w3.org/1999/xlink" width="382" zoomAndPan="magnify" viewBox="0 0 286.5 286.5" height="382" preserveAspectRatio="xMidYMid meet" version="1.0"><path fill="#004aad" d="M 108.453125 282.320312 L 108.453125 187.222656 L 78.972656 187.222656 L 78.972656 143.523438 L 108.453125 143.523438 L 108.453125 124.695312 C 108.453125 76.015625 130.476562 53.457031 178.261719 53.457031 C 183.039062 53.457031 189.640625 53.957031 195.753906 54.6875 C 200.339844 55.15625 204.871094 55.933594 209.351562 57.007812 L 209.351562 96.632812 C 206.765625 96.390625 204.171875 96.25 201.570312 96.203125 C 198.660156 96.128906 195.75 96.09375 192.835938 96.097656 C 184.410156 96.097656 177.832031 97.242188 172.875 99.777344 C 171.210938 100.613281 169.6875 101.664062 168.3125 102.921875 C 166.9375 104.179688 165.761719 105.605469 164.785156 107.191406 C 161.710938 112.195312 160.328125 119.046875 160.328125 128.070312 L 160.328125 143.523438 L 207.027344 143.523438 L 202.429688 168.585938 L 199.007812 187.222656 L 160.328125 187.222656 L 160.328125 285.476562 C 231.136719 276.921875 286 216.632812 286 143.523438 C 286 64.554688 221.972656 0.523438 143 0.523438 C 64.027344 0.523438 0 64.554688 0 143.523438 C 0 210.59375 46.164062 266.863281 108.453125 282.320312 Z M 108.453125 282.320312 " fill-opacity="1" fill-rule="nonzero"/></svg>